<mxfile host="app.diagrams.net" agent="Mozilla/5.0 (Macintosh; Intel Mac OS X 10_15_7) AppleWebKit/605.1.15 (KHTML, like Gecko) Version/17.5 Safari/605.1.15" version="24.7.5">
  <diagram name="Page-1" id="Au4rRDc1fAHywHpotmOU">
    <mxGraphModel dx="1990" dy="1215" grid="1" gridSize="10" guides="1" tooltips="1" connect="1" arrows="1" fold="1" page="1" pageScale="1" pageWidth="827" pageHeight="1169" math="0" shadow="0">
      <root>
        <mxCell id="0" />
        <mxCell id="1" parent="0" />
        <mxCell id="Uot8Ef7t35s_tLCEL4G1-6" value="" style="whiteSpace=wrap;html=1;aspect=fixed;fillColor=none;strokeColor=default;dashed=1;" vertex="1" parent="1">
          <mxGeometry x="551.78" y="340" width="120" height="120" as="geometry" />
        </mxCell>
        <mxCell id="Uot8Ef7t35s_tLCEL4G1-8" value="" style="shape=image;html=1;verticalAlign=top;verticalLabelPosition=bottom;labelBackgroundColor=#ffffff;imageAspect=0;aspect=fixed;image=https://cdn1.iconfinder.com/data/icons/unicons-line-vol-3/24/docker-128.png" vertex="1" parent="1">
          <mxGeometry x="532.3399999999999" y="373.78" width="52.44" height="52.44" as="geometry" />
        </mxCell>
        <mxCell id="Uot8Ef7t35s_tLCEL4G1-9" style="edgeStyle=orthogonalEdgeStyle;rounded=0;orthogonalLoop=1;jettySize=auto;html=1;exitX=0.5;exitY=1;exitDx=0;exitDy=0;" edge="1" parent="1" source="Uot8Ef7t35s_tLCEL4G1-6" target="Uot8Ef7t35s_tLCEL4G1-6">
          <mxGeometry relative="1" as="geometry" />
        </mxCell>
        <mxCell id="Uot8Ef7t35s_tLCEL4G1-10" value="" style="whiteSpace=wrap;html=1;aspect=fixed;fillColor=none;strokeColor=default;dashed=1;" vertex="1" parent="1">
          <mxGeometry x="167.55999999999997" y="330" width="120" height="120" as="geometry" />
        </mxCell>
        <mxCell id="Uot8Ef7t35s_tLCEL4G1-11" value="" style="shape=image;html=1;verticalAlign=top;verticalLabelPosition=bottom;labelBackgroundColor=#ffffff;imageAspect=0;aspect=fixed;image=https://cdn1.iconfinder.com/data/icons/unicons-line-vol-3/24/docker-128.png" vertex="1" parent="1">
          <mxGeometry x="144.78" y="367" width="48" height="48" as="geometry" />
        </mxCell>
        <mxCell id="Uot8Ef7t35s_tLCEL4G1-12" style="edgeStyle=orthogonalEdgeStyle;rounded=0;orthogonalLoop=1;jettySize=auto;html=1;exitX=0.5;exitY=1;exitDx=0;exitDy=0;" edge="1" source="Uot8Ef7t35s_tLCEL4G1-10" target="Uot8Ef7t35s_tLCEL4G1-10" parent="1">
          <mxGeometry relative="1" as="geometry" />
        </mxCell>
        <mxCell id="Uot8Ef7t35s_tLCEL4G1-13" value="" style="whiteSpace=wrap;html=1;aspect=fixed;fillColor=none;strokeColor=default;dashed=1;" vertex="1" parent="1">
          <mxGeometry x="551.78" y="480" width="120" height="120" as="geometry" />
        </mxCell>
        <mxCell id="Uot8Ef7t35s_tLCEL4G1-14" value="" style="shape=image;html=1;verticalAlign=top;verticalLabelPosition=bottom;labelBackgroundColor=#ffffff;imageAspect=0;aspect=fixed;image=https://cdn1.iconfinder.com/data/icons/unicons-line-vol-3/24/docker-128.png" vertex="1" parent="1">
          <mxGeometry x="532.3399999999999" y="513.78" width="52.44" height="52.44" as="geometry" />
        </mxCell>
        <mxCell id="Uot8Ef7t35s_tLCEL4G1-15" style="edgeStyle=orthogonalEdgeStyle;rounded=0;orthogonalLoop=1;jettySize=auto;html=1;exitX=0.5;exitY=1;exitDx=0;exitDy=0;" edge="1" source="Uot8Ef7t35s_tLCEL4G1-13" target="Uot8Ef7t35s_tLCEL4G1-13" parent="1">
          <mxGeometry relative="1" as="geometry" />
        </mxCell>
        <mxCell id="Uot8Ef7t35s_tLCEL4G1-16" value="" style="whiteSpace=wrap;html=1;aspect=fixed;fillColor=none;strokeColor=default;dashed=1;" vertex="1" parent="1">
          <mxGeometry x="164.78" y="470" width="120" height="120" as="geometry" />
        </mxCell>
        <mxCell id="Uot8Ef7t35s_tLCEL4G1-17" value="" style="shape=image;html=1;verticalAlign=top;verticalLabelPosition=bottom;labelBackgroundColor=#ffffff;imageAspect=0;aspect=fixed;image=https://cdn1.iconfinder.com/data/icons/unicons-line-vol-3/24/docker-128.png" vertex="1" parent="1">
          <mxGeometry x="144.78" y="507" width="48" height="48" as="geometry" />
        </mxCell>
        <mxCell id="Uot8Ef7t35s_tLCEL4G1-18" style="edgeStyle=orthogonalEdgeStyle;rounded=0;orthogonalLoop=1;jettySize=auto;html=1;exitX=0.5;exitY=1;exitDx=0;exitDy=0;" edge="1" source="Uot8Ef7t35s_tLCEL4G1-16" target="Uot8Ef7t35s_tLCEL4G1-16" parent="1">
          <mxGeometry relative="1" as="geometry" />
        </mxCell>
        <mxCell id="Uot8Ef7t35s_tLCEL4G1-30" style="edgeStyle=orthogonalEdgeStyle;rounded=0;orthogonalLoop=1;jettySize=auto;html=1;dashed=1;" edge="1" parent="1" source="Uot8Ef7t35s_tLCEL4G1-19">
          <mxGeometry relative="1" as="geometry">
            <mxPoint x="429.55999999999995" y="150" as="targetPoint" />
          </mxGeometry>
        </mxCell>
        <mxCell id="Uot8Ef7t35s_tLCEL4G1-19" value="" style="whiteSpace=wrap;html=1;aspect=fixed;fillColor=none;strokeColor=default;dashed=1;" vertex="1" parent="1">
          <mxGeometry x="369.55999999999995" y="400" width="120" height="120" as="geometry" />
        </mxCell>
        <mxCell id="Uot8Ef7t35s_tLCEL4G1-20" value="" style="shape=image;html=1;verticalAlign=top;verticalLabelPosition=bottom;labelBackgroundColor=#ffffff;imageAspect=0;aspect=fixed;image=https://cdn1.iconfinder.com/data/icons/unicons-line-vol-3/24/docker-128.png" vertex="1" parent="1">
          <mxGeometry x="346.78" y="437" width="48" height="48" as="geometry" />
        </mxCell>
        <mxCell id="Uot8Ef7t35s_tLCEL4G1-21" style="edgeStyle=orthogonalEdgeStyle;rounded=0;orthogonalLoop=1;jettySize=auto;html=1;exitX=0.5;exitY=1;exitDx=0;exitDy=0;" edge="1" source="Uot8Ef7t35s_tLCEL4G1-19" target="Uot8Ef7t35s_tLCEL4G1-19" parent="1">
          <mxGeometry relative="1" as="geometry" />
        </mxCell>
        <mxCell id="Uot8Ef7t35s_tLCEL4G1-25" value="" style="sketch=0;points=[[0.015,0.015,0],[0.985,0.015,0],[0.985,0.985,0],[0.015,0.985,0],[0.25,0,0],[0.5,0,0],[0.75,0,0],[1,0.25,0],[1,0.5,0],[1,0.75,0],[0.75,1,0],[0.5,1,0],[0.25,1,0],[0,0.75,0],[0,0.5,0],[0,0.25,0]];verticalLabelPosition=bottom;html=1;verticalAlign=top;aspect=fixed;align=center;pointerEvents=1;shape=mxgraph.cisco19.rect;prIcon=l3_switch;fillColor=#FAFAFA;strokeColor=#005073;" vertex="1" parent="1">
          <mxGeometry x="404.55999999999995" y="100" width="50" height="50" as="geometry" />
        </mxCell>
        <mxCell id="Uot8Ef7t35s_tLCEL4G1-27" value="" style="rounded=0;whiteSpace=wrap;html=1;fillColor=none;dashed=1;dashPattern=8 8;" vertex="1" parent="1">
          <mxGeometry x="94.78" y="240" width="240" height="420" as="geometry" />
        </mxCell>
        <mxCell id="Uot8Ef7t35s_tLCEL4G1-29" value="" style="rounded=0;whiteSpace=wrap;html=1;fillColor=none;dashed=1;dashPattern=8 8;" vertex="1" parent="1">
          <mxGeometry x="514.78" y="241" width="240" height="420" as="geometry" />
        </mxCell>
        <mxCell id="Uot8Ef7t35s_tLCEL4G1-34" value="" style="endArrow=none;dashed=1;html=1;dashPattern=1 3;strokeWidth=2;rounded=0;exitX=0.471;exitY=-0.002;exitDx=0;exitDy=0;exitPerimeter=0;entryX=0;entryY=0.5;entryDx=0;entryDy=0;entryPerimeter=0;" edge="1" parent="1" source="Uot8Ef7t35s_tLCEL4G1-27" target="Uot8Ef7t35s_tLCEL4G1-25">
          <mxGeometry width="50" height="50" relative="1" as="geometry">
            <mxPoint x="214.78" y="240" as="sourcePoint" />
            <mxPoint x="404.78" y="125" as="targetPoint" />
            <Array as="points">
              <mxPoint x="207.78" y="130" />
            </Array>
          </mxGeometry>
        </mxCell>
        <mxCell id="Uot8Ef7t35s_tLCEL4G1-35" value="" style="endArrow=none;dashed=1;html=1;dashPattern=1 3;strokeWidth=2;rounded=0;entryX=1;entryY=0.5;entryDx=0;entryDy=0;entryPerimeter=0;" edge="1" parent="1" target="Uot8Ef7t35s_tLCEL4G1-25">
          <mxGeometry width="50" height="50" relative="1" as="geometry">
            <mxPoint x="644.78" y="240" as="sourcePoint" />
            <mxPoint x="694.78" y="190" as="targetPoint" />
            <Array as="points">
              <mxPoint x="644.78" y="130" />
            </Array>
          </mxGeometry>
        </mxCell>
        <mxCell id="Uot8Ef7t35s_tLCEL4G1-36" value="&lt;b&gt;&lt;font style=&quot;font-size: 19px;&quot;&gt;docker0&lt;/font&gt;&lt;/b&gt;" style="text;html=1;align=center;verticalAlign=middle;whiteSpace=wrap;rounded=0;" vertex="1" parent="1">
          <mxGeometry x="390.69999999999993" y="50" width="77.72" height="40" as="geometry" />
        </mxCell>
        <mxCell id="Uot8Ef7t35s_tLCEL4G1-37" value="router" style="text;html=1;align=center;verticalAlign=middle;whiteSpace=wrap;rounded=0;" vertex="1" parent="1">
          <mxGeometry x="402.05999999999995" y="483.78" width="60" height="30" as="geometry" />
        </mxCell>
        <mxCell id="Uot8Ef7t35s_tLCEL4G1-38" value="" style="whiteSpace=wrap;html=1;aspect=fixed;fillColor=none;strokeColor=default;dashed=1;" vertex="1" parent="1">
          <mxGeometry x="607" y="969" width="120" height="120" as="geometry" />
        </mxCell>
        <mxCell id="Uot8Ef7t35s_tLCEL4G1-39" value="" style="shape=image;html=1;verticalAlign=top;verticalLabelPosition=bottom;labelBackgroundColor=#ffffff;imageAspect=0;aspect=fixed;image=https://cdn1.iconfinder.com/data/icons/unicons-line-vol-3/24/docker-128.png" vertex="1" parent="1">
          <mxGeometry x="587.56" y="1002.78" width="52.44" height="52.44" as="geometry" />
        </mxCell>
        <mxCell id="Uot8Ef7t35s_tLCEL4G1-40" style="edgeStyle=orthogonalEdgeStyle;rounded=0;orthogonalLoop=1;jettySize=auto;html=1;exitX=0.5;exitY=1;exitDx=0;exitDy=0;" edge="1" source="Uot8Ef7t35s_tLCEL4G1-38" target="Uot8Ef7t35s_tLCEL4G1-38" parent="1">
          <mxGeometry relative="1" as="geometry" />
        </mxCell>
        <mxCell id="Uot8Ef7t35s_tLCEL4G1-41" value="" style="whiteSpace=wrap;html=1;aspect=fixed;fillColor=none;strokeColor=default;dashed=1;" vertex="1" parent="1">
          <mxGeometry x="102.77999999999997" y="960" width="120" height="120" as="geometry" />
        </mxCell>
        <mxCell id="Uot8Ef7t35s_tLCEL4G1-42" value="" style="shape=image;html=1;verticalAlign=top;verticalLabelPosition=bottom;labelBackgroundColor=#ffffff;imageAspect=0;aspect=fixed;image=https://cdn1.iconfinder.com/data/icons/unicons-line-vol-3/24/docker-128.png" vertex="1" parent="1">
          <mxGeometry x="80" y="997" width="48" height="48" as="geometry" />
        </mxCell>
        <mxCell id="Uot8Ef7t35s_tLCEL4G1-43" style="edgeStyle=orthogonalEdgeStyle;rounded=0;orthogonalLoop=1;jettySize=auto;html=1;exitX=0.5;exitY=1;exitDx=0;exitDy=0;" edge="1" source="Uot8Ef7t35s_tLCEL4G1-41" target="Uot8Ef7t35s_tLCEL4G1-41" parent="1">
          <mxGeometry relative="1" as="geometry" />
        </mxCell>
        <mxCell id="Uot8Ef7t35s_tLCEL4G1-44" value="" style="whiteSpace=wrap;html=1;aspect=fixed;fillColor=none;strokeColor=default;dashed=1;" vertex="1" parent="1">
          <mxGeometry x="607" y="1109" width="120" height="120" as="geometry" />
        </mxCell>
        <mxCell id="Uot8Ef7t35s_tLCEL4G1-45" value="" style="shape=image;html=1;verticalAlign=top;verticalLabelPosition=bottom;labelBackgroundColor=#ffffff;imageAspect=0;aspect=fixed;image=https://cdn1.iconfinder.com/data/icons/unicons-line-vol-3/24/docker-128.png" vertex="1" parent="1">
          <mxGeometry x="587.56" y="1142.78" width="52.44" height="52.44" as="geometry" />
        </mxCell>
        <mxCell id="Uot8Ef7t35s_tLCEL4G1-46" style="edgeStyle=orthogonalEdgeStyle;rounded=0;orthogonalLoop=1;jettySize=auto;html=1;exitX=0.5;exitY=1;exitDx=0;exitDy=0;" edge="1" source="Uot8Ef7t35s_tLCEL4G1-44" target="Uot8Ef7t35s_tLCEL4G1-44" parent="1">
          <mxGeometry relative="1" as="geometry" />
        </mxCell>
        <mxCell id="Uot8Ef7t35s_tLCEL4G1-47" value="" style="whiteSpace=wrap;html=1;aspect=fixed;fillColor=none;strokeColor=default;dashed=1;" vertex="1" parent="1">
          <mxGeometry x="100" y="1100" width="120" height="120" as="geometry" />
        </mxCell>
        <mxCell id="Uot8Ef7t35s_tLCEL4G1-48" value="" style="shape=image;html=1;verticalAlign=top;verticalLabelPosition=bottom;labelBackgroundColor=#ffffff;imageAspect=0;aspect=fixed;image=https://cdn1.iconfinder.com/data/icons/unicons-line-vol-3/24/docker-128.png" vertex="1" parent="1">
          <mxGeometry x="80" y="1137" width="48" height="48" as="geometry" />
        </mxCell>
        <mxCell id="Uot8Ef7t35s_tLCEL4G1-49" style="edgeStyle=orthogonalEdgeStyle;rounded=0;orthogonalLoop=1;jettySize=auto;html=1;exitX=0.5;exitY=1;exitDx=0;exitDy=0;" edge="1" source="Uot8Ef7t35s_tLCEL4G1-47" target="Uot8Ef7t35s_tLCEL4G1-47" parent="1">
          <mxGeometry relative="1" as="geometry" />
        </mxCell>
        <mxCell id="Uot8Ef7t35s_tLCEL4G1-51" value="" style="whiteSpace=wrap;html=1;aspect=fixed;fillColor=none;strokeColor=default;dashed=1;" vertex="1" parent="1">
          <mxGeometry x="364.78" y="1040" width="120" height="120" as="geometry" />
        </mxCell>
        <mxCell id="Uot8Ef7t35s_tLCEL4G1-52" value="" style="shape=image;html=1;verticalAlign=top;verticalLabelPosition=bottom;labelBackgroundColor=#ffffff;imageAspect=0;aspect=fixed;image=https://cdn1.iconfinder.com/data/icons/unicons-line-vol-3/24/docker-128.png" vertex="1" parent="1">
          <mxGeometry x="342" y="1077" width="48" height="48" as="geometry" />
        </mxCell>
        <mxCell id="Uot8Ef7t35s_tLCEL4G1-53" style="edgeStyle=orthogonalEdgeStyle;rounded=0;orthogonalLoop=1;jettySize=auto;html=1;exitX=0.5;exitY=1;exitDx=0;exitDy=0;" edge="1" source="Uot8Ef7t35s_tLCEL4G1-51" target="Uot8Ef7t35s_tLCEL4G1-51" parent="1">
          <mxGeometry relative="1" as="geometry" />
        </mxCell>
        <mxCell id="Uot8Ef7t35s_tLCEL4G1-56" value="" style="rounded=0;whiteSpace=wrap;html=1;fillColor=none;dashed=1;dashPattern=8 8;" vertex="1" parent="1">
          <mxGeometry x="30" y="870" width="240" height="420" as="geometry" />
        </mxCell>
        <mxCell id="Uot8Ef7t35s_tLCEL4G1-57" value="" style="rounded=0;whiteSpace=wrap;html=1;fillColor=none;dashed=1;dashPattern=8 8;" vertex="1" parent="1">
          <mxGeometry x="570" y="869" width="237" height="420" as="geometry" />
        </mxCell>
        <mxCell id="Uot8Ef7t35s_tLCEL4G1-60" value="router" style="text;html=1;align=center;verticalAlign=middle;whiteSpace=wrap;rounded=0;" vertex="1" parent="1">
          <mxGeometry x="397.28" y="1123.78" width="60" height="30" as="geometry" />
        </mxCell>
        <mxCell id="Uot8Ef7t35s_tLCEL4G1-62" value="" style="endArrow=classic;html=1;rounded=0;entryX=0.5;entryY=0;entryDx=0;entryDy=0;exitX=1;exitY=0.702;exitDx=0;exitDy=0;dashed=1;dashPattern=12 12;exitPerimeter=0;" edge="1" parent="1" target="Uot8Ef7t35s_tLCEL4G1-52">
          <mxGeometry width="50" height="50" relative="1" as="geometry">
            <mxPoint x="270" y="1077" as="sourcePoint" />
            <mxPoint x="364.78" y="1072.1599999999999" as="targetPoint" />
            <Array as="points" />
          </mxGeometry>
        </mxCell>
        <mxCell id="Uot8Ef7t35s_tLCEL4G1-64" value="" style="endArrow=classic;html=1;rounded=0;entryX=1.035;entryY=0.567;entryDx=0;entryDy=0;entryPerimeter=0;dashed=1;dashPattern=12 12;exitX=0;exitY=0.5;exitDx=0;exitDy=0;" edge="1" parent="1" source="Uot8Ef7t35s_tLCEL4G1-57">
          <mxGeometry width="50" height="50" relative="1" as="geometry">
            <mxPoint x="540" y="1080" as="sourcePoint" />
            <mxPoint x="488.98" y="1080" as="targetPoint" />
          </mxGeometry>
        </mxCell>
        <mxCell id="Uot8Ef7t35s_tLCEL4G1-66" value="" style="edgeStyle=orthogonalEdgeStyle;rounded=0;orthogonalLoop=1;jettySize=auto;html=1;dashed=1;" edge="1" parent="1" source="Uot8Ef7t35s_tLCEL4G1-51" target="Uot8Ef7t35s_tLCEL4G1-55">
          <mxGeometry relative="1" as="geometry">
            <mxPoint x="424.78" y="790" as="targetPoint" />
            <mxPoint x="425" y="1040" as="sourcePoint" />
          </mxGeometry>
        </mxCell>
        <mxCell id="Uot8Ef7t35s_tLCEL4G1-55" value="" style="sketch=0;points=[[0.015,0.015,0],[0.985,0.015,0],[0.985,0.985,0],[0.015,0.985,0],[0.25,0,0],[0.5,0,0],[0.75,0,0],[1,0.25,0],[1,0.5,0],[1,0.75,0],[0.75,1,0],[0.5,1,0],[0.25,1,0],[0,0.75,0],[0,0.5,0],[0,0.25,0]];verticalLabelPosition=bottom;html=1;verticalAlign=top;aspect=fixed;align=center;pointerEvents=1;shape=mxgraph.cisco19.rect;prIcon=l3_switch;fillColor=#FAFAFA;strokeColor=#005073;" vertex="1" parent="1">
          <mxGeometry x="399.78" y="800" width="50" height="50" as="geometry" />
        </mxCell>
        <mxCell id="Uot8Ef7t35s_tLCEL4G1-67" value="Network 1" style="text;html=1;align=center;verticalAlign=middle;whiteSpace=wrap;rounded=0;" vertex="1" parent="1">
          <mxGeometry x="120" y="890" width="60" height="30" as="geometry" />
        </mxCell>
        <mxCell id="Uot8Ef7t35s_tLCEL4G1-68" value="Network 2" style="text;html=1;align=center;verticalAlign=middle;whiteSpace=wrap;rounded=0;" vertex="1" parent="1">
          <mxGeometry x="650" y="890" width="60" height="30" as="geometry" />
        </mxCell>
        <mxCell id="Uot8Ef7t35s_tLCEL4G1-69" value="Network 1&lt;div&gt;&lt;br&gt;&lt;/div&gt;" style="text;html=1;align=center;verticalAlign=middle;whiteSpace=wrap;rounded=0;" vertex="1" parent="1">
          <mxGeometry x="184.78" y="260" width="60" height="30" as="geometry" />
        </mxCell>
        <mxCell id="Uot8Ef7t35s_tLCEL4G1-70" value="Network 2" style="text;html=1;align=center;verticalAlign=middle;whiteSpace=wrap;rounded=0;" vertex="1" parent="1">
          <mxGeometry x="611.78" y="260" width="60" height="30" as="geometry" />
        </mxCell>
        <mxCell id="Uot8Ef7t35s_tLCEL4G1-72" value="172.20.0.0/16" style="text;html=1;align=center;verticalAlign=middle;whiteSpace=wrap;rounded=0;" vertex="1" parent="1">
          <mxGeometry x="184.78" y="280" width="60" height="30" as="geometry" />
        </mxCell>
        <mxCell id="Uot8Ef7t35s_tLCEL4G1-73" value="172.21.0.0/16" style="text;html=1;align=center;verticalAlign=middle;whiteSpace=wrap;rounded=0;" vertex="1" parent="1">
          <mxGeometry x="650" y="920" width="60" height="30" as="geometry" />
        </mxCell>
        <mxCell id="Uot8Ef7t35s_tLCEL4G1-74" value="172.20.0.0/16" style="text;html=1;align=center;verticalAlign=middle;whiteSpace=wrap;rounded=0;" vertex="1" parent="1">
          <mxGeometry x="120" y="920" width="60" height="30" as="geometry" />
        </mxCell>
        <mxCell id="Uot8Ef7t35s_tLCEL4G1-76" value="172.21.0.0/16" style="text;html=1;align=center;verticalAlign=middle;whiteSpace=wrap;rounded=0;" vertex="1" parent="1">
          <mxGeometry x="611.78" y="290" width="60" height="30" as="geometry" />
        </mxCell>
        <mxCell id="Uot8Ef7t35s_tLCEL4G1-79" value="172.20.0.0/16" style="text;html=1;align=center;verticalAlign=middle;whiteSpace=wrap;rounded=0;" vertex="1" parent="1">
          <mxGeometry x="354.78" y="369" width="60" height="30" as="geometry" />
        </mxCell>
        <mxCell id="Uot8Ef7t35s_tLCEL4G1-81" value="" style="image;aspect=fixed;html=1;points=[];align=center;fontSize=12;image=img/lib/azure2/networking/Virtual_Router.svg;" vertex="1" parent="1">
          <mxGeometry x="403.05999999999995" y="431" width="53" height="53" as="geometry" />
        </mxCell>
        <mxCell id="Uot8Ef7t35s_tLCEL4G1-82" value="" style="image;aspect=fixed;html=1;points=[];align=center;fontSize=12;image=img/lib/azure2/networking/Virtual_Router.svg;" vertex="1" parent="1">
          <mxGeometry x="398.28" y="1073.5" width="53" height="53" as="geometry" />
        </mxCell>
        <mxCell id="Uot8Ef7t35s_tLCEL4G1-83" value="&lt;br&gt;&lt;div&gt;172.21.0.0/16&lt;br&gt;&lt;/div&gt;" style="text;html=1;align=center;verticalAlign=middle;whiteSpace=wrap;rounded=0;" vertex="1" parent="1">
          <mxGeometry x="438.78" y="362" width="60" height="30" as="geometry" />
        </mxCell>
        <mxCell id="Uot8Ef7t35s_tLCEL4G1-85" value="172.20.0.0/16" style="text;html=1;align=center;verticalAlign=middle;whiteSpace=wrap;rounded=0;" vertex="1" parent="1">
          <mxGeometry x="350" y="1006" width="60" height="30" as="geometry" />
        </mxCell>
        <mxCell id="Uot8Ef7t35s_tLCEL4G1-86" value="&lt;br&gt;&lt;div&gt;172.21.0.0/16&lt;br&gt;&lt;/div&gt;" style="text;html=1;align=center;verticalAlign=middle;whiteSpace=wrap;rounded=0;" vertex="1" parent="1">
          <mxGeometry x="441.78" y="1000" width="60" height="30" as="geometry" />
        </mxCell>
        <mxCell id="Uot8Ef7t35s_tLCEL4G1-87" value="" style="shape=image;html=1;verticalAlign=top;verticalLabelPosition=bottom;labelBackgroundColor=#ffffff;imageAspect=0;aspect=fixed;image=https://cdn1.iconfinder.com/data/icons/operating-system-flat-1/30/ubuntu-128.png" vertex="1" parent="1">
          <mxGeometry x="194.78" y="359.22" width="67" height="67" as="geometry" />
        </mxCell>
        <mxCell id="Uot8Ef7t35s_tLCEL4G1-88" value="" style="shape=image;html=1;verticalAlign=top;verticalLabelPosition=bottom;labelBackgroundColor=#ffffff;imageAspect=0;aspect=fixed;image=https://cdn1.iconfinder.com/data/icons/operating-system-flat-1/30/ubuntu-128.png" vertex="1" parent="1">
          <mxGeometry x="584.78" y="366.5" width="67" height="67" as="geometry" />
        </mxCell>
        <mxCell id="Uot8Ef7t35s_tLCEL4G1-89" value="" style="shape=image;html=1;verticalAlign=top;verticalLabelPosition=bottom;labelBackgroundColor=#ffffff;imageAspect=0;aspect=fixed;image=https://cdn1.iconfinder.com/data/icons/operating-system-flat-1/30/ubuntu-128.png" vertex="1" parent="1">
          <mxGeometry x="584.78" y="510" width="67" height="67" as="geometry" />
        </mxCell>
        <mxCell id="Uot8Ef7t35s_tLCEL4G1-90" value="" style="shape=image;html=1;verticalAlign=top;verticalLabelPosition=bottom;labelBackgroundColor=#ffffff;imageAspect=0;aspect=fixed;image=https://cdn1.iconfinder.com/data/icons/operating-system-flat-1/30/ubuntu-128.png" vertex="1" parent="1">
          <mxGeometry x="194.78" y="499.22" width="67" height="67" as="geometry" />
        </mxCell>
        <mxCell id="Uot8Ef7t35s_tLCEL4G1-91" value="" style="shape=image;html=1;verticalAlign=top;verticalLabelPosition=bottom;labelBackgroundColor=#ffffff;imageAspect=0;aspect=fixed;image=https://cdn1.iconfinder.com/data/icons/operating-system-flat-1/30/ubuntu-128.png" vertex="1" parent="1">
          <mxGeometry x="130.5" y="988.22" width="67" height="67" as="geometry" />
        </mxCell>
        <mxCell id="Uot8Ef7t35s_tLCEL4G1-92" value="" style="shape=image;html=1;verticalAlign=top;verticalLabelPosition=bottom;labelBackgroundColor=#ffffff;imageAspect=0;aspect=fixed;image=https://cdn1.iconfinder.com/data/icons/operating-system-flat-1/30/ubuntu-128.png" vertex="1" parent="1">
          <mxGeometry x="130.5" y="1130" width="67" height="67" as="geometry" />
        </mxCell>
        <mxCell id="Uot8Ef7t35s_tLCEL4G1-93" value="" style="shape=image;html=1;verticalAlign=top;verticalLabelPosition=bottom;labelBackgroundColor=#ffffff;imageAspect=0;aspect=fixed;image=https://cdn1.iconfinder.com/data/icons/operating-system-flat-1/30/ubuntu-128.png" vertex="1" parent="1">
          <mxGeometry x="640" y="1135.5" width="67" height="67" as="geometry" />
        </mxCell>
        <mxCell id="Uot8Ef7t35s_tLCEL4G1-94" value="" style="shape=image;html=1;verticalAlign=top;verticalLabelPosition=bottom;labelBackgroundColor=#ffffff;imageAspect=0;aspect=fixed;image=https://cdn1.iconfinder.com/data/icons/operating-system-flat-1/30/ubuntu-128.png" vertex="1" parent="1">
          <mxGeometry x="640" y="1000" width="67" height="67" as="geometry" />
        </mxCell>
        <mxCell id="Uot8Ef7t35s_tLCEL4G1-96" value="&lt;b&gt;&lt;font style=&quot;font-size: 19px;&quot;&gt;docker0&lt;/font&gt;&lt;/b&gt;" style="text;html=1;align=center;verticalAlign=middle;whiteSpace=wrap;rounded=0;" vertex="1" parent="1">
          <mxGeometry x="385.91999999999996" y="760" width="77.72" height="40" as="geometry" />
        </mxCell>
      </root>
    </mxGraphModel>
  </diagram>
</mxfile>
